<mxfile host="app.diagrams.net" modified="2024-06-18T12:56:24.028Z" agent="Mozilla/5.0 (Windows NT 10.0; Win64; x64) AppleWebKit/537.36 (KHTML, like Gecko) Chrome/125.0.0.0 Safari/537.36 Edg/125.0.0.0" version="24.5.4" etag="iNLzxkvv8KuAUgj61UUS" type="github">
  <diagram name="Page-1" id="gFpB4Y96WSaDHEssy0J5">
    <mxGraphModel>
      <root>
        <mxCell id="0" />
        <mxCell id="1" parent="0" />
      </root>
    </mxGraphModel>
  </diagram>
</mxfile>
